<?xml version="1.0" encoding="utf-8"?>
<!-- Generator: Adobe Illustrator 19.0.0, SVG Export Plug-In . SVG Version: 6.00 Build 0)  -->
<svg version="1.1" id="logo" xmlns="http://www.w3.org/2000/svg" xmlns:xlink="http://www.w3.org/1999/xlink" x="0px" y="0px"
	 viewBox="0 0 50 50" style="enable-background:new 0 0 50 50;" xml:space="preserve">
<g id="logo2">
	<g>
		<g>
			<path id="SVGID_1_" d="M18.9,27c0,3-0.7,5.3-2.1,6.9c-1.4,1.6-3.4,2.3-6,2.3c-1.2,0-2.3-0.2-3.3-0.6v-4.8c0.8,0.6,1.8,1,2.9,1
				c2.3,0,3.4-1.7,3.4-5.1v-13h5V27z"/>
		</g>
	</g>
</g>
<g id="logo1">
	<g>
		<g>
			<path id="SVGID_3_" d="M42.5,36.2h-6.4l-6.6-9.7c-0.1-0.2-0.4-0.6-0.6-1.3h-0.1v11h-5V13.8h5v10.6h0.1c0.1-0.3,0.4-0.7,0.6-1.3
				l6.2-9.4h6L34,24.5L42.5,36.2z"/>
		</g>
	</g>
</g>
<g>
	<path d="M46,4v42H4V4H46 M50,0H0v50h50V0L50,0z"/>
</g>
</svg>
