<?xml version="1.0" encoding="utf-8"?>
<!-- Generator: Adobe Illustrator 23.0.1, SVG Export Plug-In . SVG Version: 6.00 Build 0)  -->
<svg version="1.1" id="Laag_1" xmlns="http://www.w3.org/2000/svg" xmlns:xlink="http://www.w3.org/1999/xlink" x="0px" y="0px"
	 viewBox="0 0 492 228" style="enable-background:new 0 0 492 228;" xml:space="preserve">
<style type="text/css">
	.st0{font-family:'Akkurat';}
	.st1{font-size:11px;}
	.st2{fill:none;stroke:#E6E6E6;stroke-miterlimit:10;}
	.st3{fill:#E6E6E6;}
	.st4{fill:none;stroke:#E6E6E6;stroke-width:0.5;stroke-miterlimit:10;}
	.st5{letter-spacing:2;}
	.st6{letter-spacing:4;}
	.st7{letter-spacing:5;}
	.st8{letter-spacing:3;}
</style>
<text transform="matrix(1 0 0 1 408.8047 179.5738)" class="st0 st1">p(t+1)</text>
<text transform="matrix(1 0 0 1 332.5264 28.0191)" class="st0 st1">p(t+1)</text>
<text transform="matrix(1 0 0 1 129.9512 179.5738)" class="st0 st1">p(t)</text>
<text transform="matrix(1 0 0 1 53.6729 28.0191)" class="st0 st1">p(t)</text>
<g>
	<g>
		<line class="st2" x1="65.6" y1="37.6" x2="124.8" y2="150"/>
		<g>
			<polygon class="st3" points="119.7,151.1 128.1,156.4 128.5,146.4 			"/>
		</g>
	</g>
</g>
<g>
	<g>
		<line class="st2" x1="344.5" y1="37.6" x2="403.6" y2="150"/>
		<g>
			<polygon class="st3" points="398.5,151.1 407,156.4 407.4,146.4 			"/>
		</g>
	</g>
</g>
<g>
	<g>
		<line class="st2" x1="82.5" y1="23.2" x2="316.6" y2="23.2"/>
		<g>
			<polygon class="st3" points="315.2,28.2 323.8,23.2 315.2,18.2 			"/>
		</g>
	</g>
</g>
<g>
	<g>
		<line class="st2" x1="156.9" y1="178.3" x2="391" y2="178.3"/>
		<g>
			<polygon class="st3" points="389.6,183.3 398.2,178.3 389.6,173.3 			"/>
		</g>
	</g>
</g>
<g>
	<g>
		<line class="st2" x1="151.4" y1="168.5" x2="318.1" y2="42.6"/>
		<g>
			<polygon class="st3" points="319.9,47.4 323.8,38.2 313.9,39.5 			"/>
		</g>
	</g>
</g>
<g>
	<g>
		<line class="st4" x1="51.8" y1="223.9" x2="489" y2="223.9"/>
		<g>
			<path class="st3" d="M492,223.9c-1.4,0.5-3.2,1.4-4.3,2.4l0.9-2.4l-0.9-2.4C488.8,222.5,490.6,223.4,492,223.9z"/>
		</g>
	</g>
</g>
<text transform="matrix(1 0 0 1 450.668 218.7969)" class="st0 st1">time</text>
<text transform="matrix(1 0 0 1 0.9673 7.2036)" class="st0 st1 st5">p</text>
<text transform="matrix(1 0 0 1 2.1273 17.1037)" class="st0 st1 st6">r</text>
<text transform="matrix(1 0 0 1 1.1673 27.0036)" class="st0 st1 st5">o</text>
<text transform="matrix(1 0 0 1 0.9673 36.9036)" class="st0 st1 st5">b</text>
<text transform="matrix(1 0 0 1 2.6373 46.8036)" class="st0 st1 st7">l</text>
<text transform="matrix(1 0 0 1 1.2073 56.7036)" class="st0 st1 st5">e</text>
<text transform="matrix(1 0 0 1 -0.5927 66.6037)" class="st0 st1">m</text>
<text transform="matrix(1 0 0 1 1.3745 132.2505)" class="st0 st1 st8">s</text>
<text transform="matrix(1 0 0 1 1.1745 142.1505)" class="st0 st1 st5">o</text>
<text transform="matrix(1 0 0 1 2.6445 152.0506)" class="st0 st1 st7">l</text>
<text transform="matrix(1 0 0 1 1.0345 161.9506)" class="st0 st1 st5">u</text>
<text transform="matrix(1 0 0 1 2.1245 171.8506)" class="st0 st1 st6">t</text>
<text transform="matrix(1 0 0 1 2.7345 181.7505)" class="st0 st1 st7">i</text>
<text transform="matrix(1 0 0 1 1.1745 191.6505)" class="st0 st1 st5">o</text>
<text transform="matrix(1 0 0 1 1.0245 201.5506)" class="st0 st1 st5">n</text>
</svg>
